<svg xmlns="http://www.w3.org/2000/svg" viewBox="0 0 128 128" role="img" aria-label="Skyborne">
  <defs><filter id="glow" x="-50%" y="-50%" width="200%" height="200%"><feGaussianBlur stdDeviation="2.6"/></filter></defs>
  <g transform="translate(0 4)">
    <line x1="64" y1="36" x2="64" y2="18" stroke="#6B7285" stroke-width="5" stroke-linecap="round"/>
    <circle cx="64" cy="13" r="7.5" fill="#E8A54B"/>
    <rect x="7" y="61" width="11" height="26" rx="4.5" fill="#6B7285"/>
    <rect x="110" y="61" width="11" height="26" rx="4.5" fill="#6B7285"/>
    <rect x="16" y="36" width="96" height="76" rx="24" fill="#F2F4F8" stroke="#1B1D22" stroke-width="5"/>
    <rect x="28" y="50" width="72" height="48" rx="14" fill="#1B1D22"/>
    <g fill="none" stroke="#8FF4FF" stroke-width="7" stroke-linecap="round">
      <g filter="url(#glow)" opacity=".75"><path d="M37 80 A10 10 0 0 1 57 80"/><path d="M71 80 A10 10 0 0 1 91 80"/></g>
      <path d="M37 80 A10 10 0 0 1 57 80"/><path d="M71 80 A10 10 0 0 1 91 80"/></g>
  </g>
</svg>
